<mxfile host="app.diagrams.net" modified="2024-05-13T04:22:10.801Z" agent="Mozilla/5.0 (Windows NT 10.0; Win64; x64) AppleWebKit/537.36 (KHTML, like Gecko) Chrome/123.0.0.0 Safari/537.36" etag="VaEo2rsDKoeCc1ofULhZ" version="24.4.0" type="device">
  <diagram name="第 1 页" id="wmMdZmq2nSIauH4oeHdS">
    <mxGraphModel dx="1221" dy="759" grid="1" gridSize="10" guides="1" tooltips="1" connect="1" arrows="1" fold="1" page="1" pageScale="1" pageWidth="827" pageHeight="1169" math="0" shadow="0">
      <root>
        <mxCell id="0" />
        <mxCell id="1" parent="0" />
        <mxCell id="PYzYHHPiYDWCUgoL7iwY-1" value="&lt;font style=&quot;font-size: 14px;&quot;&gt;&lt;b&gt;Prompt&lt;/b&gt;&lt;/font&gt;" style="ellipse;shape=cloud;whiteSpace=wrap;html=1;fillColor=#dae8fc;strokeColor=#6c8ebf;" vertex="1" parent="1">
          <mxGeometry x="340" y="50" width="120" height="80" as="geometry" />
        </mxCell>
        <mxCell id="PYzYHHPiYDWCUgoL7iwY-3" value="" style="shape=flexArrow;endArrow=classic;html=1;rounded=0;" edge="1" parent="1" source="PYzYHHPiYDWCUgoL7iwY-1" target="PYzYHHPiYDWCUgoL7iwY-4">
          <mxGeometry width="50" height="50" relative="1" as="geometry">
            <mxPoint x="390" y="420" as="sourcePoint" />
            <mxPoint x="400" y="200" as="targetPoint" />
          </mxGeometry>
        </mxCell>
        <mxCell id="PYzYHHPiYDWCUgoL7iwY-4" value="&lt;b&gt;&lt;font style=&quot;font-size: 14px;&quot;&gt;Agent1&lt;/font&gt;&lt;/b&gt;" style="rounded=0;whiteSpace=wrap;html=1;fillColor=#d5e8d4;strokeColor=#82b366;" vertex="1" parent="1">
          <mxGeometry x="130" y="200" width="120" height="60" as="geometry" />
        </mxCell>
        <mxCell id="PYzYHHPiYDWCUgoL7iwY-5" value="&lt;b&gt;&lt;font style=&quot;font-size: 14px;&quot;&gt;Agent2&lt;/font&gt;&lt;/b&gt;" style="rounded=0;whiteSpace=wrap;html=1;fillColor=#fff2cc;strokeColor=#d6b656;" vertex="1" parent="1">
          <mxGeometry x="340" y="200" width="120" height="60" as="geometry" />
        </mxCell>
        <mxCell id="PYzYHHPiYDWCUgoL7iwY-6" value="" style="shape=flexArrow;endArrow=classic;html=1;rounded=0;" edge="1" parent="1" source="PYzYHHPiYDWCUgoL7iwY-1">
          <mxGeometry width="50" height="50" relative="1" as="geometry">
            <mxPoint x="368" y="128" as="sourcePoint" />
            <mxPoint x="400" y="200" as="targetPoint" />
          </mxGeometry>
        </mxCell>
        <mxCell id="PYzYHHPiYDWCUgoL7iwY-7" value="&lt;b&gt;&lt;font style=&quot;font-size: 14px;&quot;&gt;Agent3&lt;/font&gt;&lt;/b&gt;" style="rounded=0;whiteSpace=wrap;html=1;fillColor=#f8cecc;strokeColor=#b85450;" vertex="1" parent="1">
          <mxGeometry x="530" y="200" width="120" height="60" as="geometry" />
        </mxCell>
        <mxCell id="PYzYHHPiYDWCUgoL7iwY-8" value="" style="shape=flexArrow;endArrow=classic;html=1;rounded=0;entryX=0.5;entryY=0;entryDx=0;entryDy=0;" edge="1" parent="1" source="PYzYHHPiYDWCUgoL7iwY-1" target="PYzYHHPiYDWCUgoL7iwY-7">
          <mxGeometry width="50" height="50" relative="1" as="geometry">
            <mxPoint x="410" y="140" as="sourcePoint" />
            <mxPoint x="410" y="210" as="targetPoint" />
          </mxGeometry>
        </mxCell>
        <mxCell id="PYzYHHPiYDWCUgoL7iwY-9" value="&lt;b&gt;&lt;font style=&quot;font-size: 14px;&quot;&gt;Agent1&lt;/font&gt;&lt;/b&gt;" style="rounded=0;whiteSpace=wrap;html=1;fillColor=#d5e8d4;strokeColor=#82b366;" vertex="1" parent="1">
          <mxGeometry x="130" y="370" width="120" height="60" as="geometry" />
        </mxCell>
        <mxCell id="PYzYHHPiYDWCUgoL7iwY-10" value="&lt;b&gt;&lt;font style=&quot;font-size: 14px;&quot;&gt;Agent2&lt;/font&gt;&lt;/b&gt;" style="rounded=0;whiteSpace=wrap;html=1;fillColor=#fff2cc;strokeColor=#d6b656;" vertex="1" parent="1">
          <mxGeometry x="340" y="370" width="120" height="60" as="geometry" />
        </mxCell>
        <mxCell id="PYzYHHPiYDWCUgoL7iwY-11" value="&lt;b&gt;&lt;font style=&quot;font-size: 14px;&quot;&gt;Agent3&lt;/font&gt;&lt;/b&gt;" style="rounded=0;whiteSpace=wrap;html=1;fillColor=#f8cecc;strokeColor=#b85450;" vertex="1" parent="1">
          <mxGeometry x="530" y="370" width="120" height="60" as="geometry" />
        </mxCell>
        <mxCell id="PYzYHHPiYDWCUgoL7iwY-13" value="" style="shape=flexArrow;endArrow=classic;html=1;rounded=0;fillColor=#fff2cc;strokeColor=#d6b656;" edge="1" parent="1" source="PYzYHHPiYDWCUgoL7iwY-5" target="PYzYHHPiYDWCUgoL7iwY-9">
          <mxGeometry width="50" height="50" relative="1" as="geometry">
            <mxPoint x="410" y="140" as="sourcePoint" />
            <mxPoint x="410" y="210" as="targetPoint" />
          </mxGeometry>
        </mxCell>
        <mxCell id="PYzYHHPiYDWCUgoL7iwY-14" value="" style="shape=flexArrow;endArrow=classic;html=1;rounded=0;fillColor=#f8cecc;strokeColor=#b85450;" edge="1" parent="1" source="PYzYHHPiYDWCUgoL7iwY-7" target="PYzYHHPiYDWCUgoL7iwY-9">
          <mxGeometry width="50" height="50" relative="1" as="geometry">
            <mxPoint x="373" y="270" as="sourcePoint" />
            <mxPoint x="237" y="380" as="targetPoint" />
          </mxGeometry>
        </mxCell>
        <mxCell id="PYzYHHPiYDWCUgoL7iwY-15" value="" style="shape=flexArrow;endArrow=classic;html=1;rounded=0;fillColor=#d5e8d4;strokeColor=#82b366;" edge="1" parent="1" source="PYzYHHPiYDWCUgoL7iwY-4" target="PYzYHHPiYDWCUgoL7iwY-10">
          <mxGeometry width="50" height="50" relative="1" as="geometry">
            <mxPoint x="373" y="270" as="sourcePoint" />
            <mxPoint x="237" y="380" as="targetPoint" />
          </mxGeometry>
        </mxCell>
        <mxCell id="PYzYHHPiYDWCUgoL7iwY-16" value="" style="shape=flexArrow;endArrow=classic;html=1;rounded=0;fillColor=#d5e8d4;strokeColor=#82b366;" edge="1" parent="1" source="PYzYHHPiYDWCUgoL7iwY-4" target="PYzYHHPiYDWCUgoL7iwY-11">
          <mxGeometry width="50" height="50" relative="1" as="geometry">
            <mxPoint x="383" y="280" as="sourcePoint" />
            <mxPoint x="247" y="390" as="targetPoint" />
          </mxGeometry>
        </mxCell>
        <mxCell id="PYzYHHPiYDWCUgoL7iwY-17" value="" style="shape=flexArrow;endArrow=classic;html=1;rounded=0;exitX=0.192;exitY=1.017;exitDx=0;exitDy=0;exitPerimeter=0;fillColor=#fff2cc;strokeColor=#d6b656;" edge="1" parent="1" source="PYzYHHPiYDWCUgoL7iwY-5" target="PYzYHHPiYDWCUgoL7iwY-10">
          <mxGeometry width="50" height="50" relative="1" as="geometry">
            <mxPoint x="373" y="270" as="sourcePoint" />
            <mxPoint x="237" y="380" as="targetPoint" />
          </mxGeometry>
        </mxCell>
        <mxCell id="PYzYHHPiYDWCUgoL7iwY-18" value="" style="shape=flexArrow;endArrow=classic;html=1;rounded=0;fillColor=#f8cecc;strokeColor=#b85450;" edge="1" parent="1" target="PYzYHHPiYDWCUgoL7iwY-10">
          <mxGeometry width="50" height="50" relative="1" as="geometry">
            <mxPoint x="540" y="260" as="sourcePoint" />
            <mxPoint x="260" y="385" as="targetPoint" />
          </mxGeometry>
        </mxCell>
        <mxCell id="PYzYHHPiYDWCUgoL7iwY-20" value="" style="endArrow=none;dashed=1;html=1;dashPattern=1 3;strokeWidth=7;rounded=0;" edge="1" parent="1">
          <mxGeometry width="50" height="50" relative="1" as="geometry">
            <mxPoint x="350" y="470" as="sourcePoint" />
            <mxPoint x="450" y="470" as="targetPoint" />
          </mxGeometry>
        </mxCell>
        <mxCell id="PYzYHHPiYDWCUgoL7iwY-21" value="&lt;b&gt;&lt;font style=&quot;font-size: 14px;&quot;&gt;Agent1&lt;/font&gt;&lt;/b&gt;" style="rounded=0;whiteSpace=wrap;html=1;fillColor=#d5e8d4;strokeColor=#82b366;" vertex="1" parent="1">
          <mxGeometry x="130" y="510" width="120" height="60" as="geometry" />
        </mxCell>
        <mxCell id="PYzYHHPiYDWCUgoL7iwY-22" value="&lt;b&gt;&lt;font style=&quot;font-size: 14px;&quot;&gt;Agent2&lt;/font&gt;&lt;/b&gt;" style="rounded=0;whiteSpace=wrap;html=1;fillColor=#fff2cc;strokeColor=#d6b656;" vertex="1" parent="1">
          <mxGeometry x="340" y="510" width="120" height="60" as="geometry" />
        </mxCell>
        <mxCell id="PYzYHHPiYDWCUgoL7iwY-23" value="&lt;b&gt;&lt;font style=&quot;font-size: 14px;&quot;&gt;Agent3&lt;/font&gt;&lt;/b&gt;" style="rounded=0;whiteSpace=wrap;html=1;fillColor=#f8cecc;strokeColor=#b85450;" vertex="1" parent="1">
          <mxGeometry x="530" y="510" width="120" height="60" as="geometry" />
        </mxCell>
        <mxCell id="PYzYHHPiYDWCUgoL7iwY-24" value="" style="shape=flexArrow;endArrow=classic;html=1;rounded=0;fillColor=#d5e8d4;strokeColor=#82b366;exitX=0.5;exitY=1;exitDx=0;exitDy=0;" edge="1" parent="1" source="PYzYHHPiYDWCUgoL7iwY-21" target="PYzYHHPiYDWCUgoL7iwY-25">
          <mxGeometry width="50" height="50" relative="1" as="geometry">
            <mxPoint x="220" y="570" as="sourcePoint" />
            <mxPoint x="210" y="720" as="targetPoint" />
          </mxGeometry>
        </mxCell>
        <mxCell id="PYzYHHPiYDWCUgoL7iwY-25" value="&lt;b&gt;Majority Voting&lt;/b&gt;" style="ellipse;shape=cloud;whiteSpace=wrap;html=1;fillColor=#dae8fc;strokeColor=#6c8ebf;" vertex="1" parent="1">
          <mxGeometry x="340" y="670" width="120" height="80" as="geometry" />
        </mxCell>
        <mxCell id="PYzYHHPiYDWCUgoL7iwY-26" value="" style="shape=flexArrow;endArrow=classic;html=1;rounded=0;exitX=0.5;exitY=1;exitDx=0;exitDy=0;fillColor=#fff2cc;strokeColor=#d6b656;" edge="1" parent="1" source="PYzYHHPiYDWCUgoL7iwY-22" target="PYzYHHPiYDWCUgoL7iwY-25">
          <mxGeometry width="50" height="50" relative="1" as="geometry">
            <mxPoint x="399" y="540" as="sourcePoint" />
            <mxPoint x="428" y="649" as="targetPoint" />
          </mxGeometry>
        </mxCell>
        <mxCell id="PYzYHHPiYDWCUgoL7iwY-27" value="" style="shape=flexArrow;endArrow=classic;html=1;rounded=0;fillColor=#f8cecc;strokeColor=#b85450;" edge="1" parent="1" source="PYzYHHPiYDWCUgoL7iwY-23" target="PYzYHHPiYDWCUgoL7iwY-25">
          <mxGeometry width="50" height="50" relative="1" as="geometry">
            <mxPoint x="540" y="266" as="sourcePoint" />
            <mxPoint x="260" y="385" as="targetPoint" />
          </mxGeometry>
        </mxCell>
        <mxCell id="PYzYHHPiYDWCUgoL7iwY-28" value="&lt;b style=&quot;font-size: 15px;&quot;&gt;&lt;font style=&quot;font-size: 15px;&quot;&gt;Debate&lt;/font&gt;&lt;/b&gt;&lt;div style=&quot;font-size: 15px;&quot;&gt;&lt;b&gt;&lt;font style=&quot;font-size: 15px;&quot;&gt;Engaging&lt;/font&gt;&lt;/b&gt;&lt;/div&gt;&lt;div style=&quot;font-size: 15px;&quot;&gt;&lt;b&gt;&lt;font style=&quot;font-size: 15px;&quot;&gt;Prompt&lt;/font&gt;&lt;/b&gt;&lt;/div&gt;" style="text;html=1;align=center;verticalAlign=middle;whiteSpace=wrap;rounded=0;strokeWidth=3;" vertex="1" parent="1">
          <mxGeometry x="40" y="380" width="60" height="30" as="geometry" />
        </mxCell>
      </root>
    </mxGraphModel>
  </diagram>
</mxfile>
